# xmcd CD database file
#
# Track frame offsets:
#	150
#	19348
#	31500
#	44627
#	66428
#	89407
#	112419
#	131869
#	151539
#	168596
#	189273
#	201633
#
# Disc length: 2933 seconds
#
# Revision: 1
# Processed by: cddbd v1.4PL0 Copyright (c) Steve Scherf et al.
# Submitted via: CDex 1.50
#
DISCID=ad0b730c
DTITLE=Debbie Davies - 'Round Every Corner
DYEAR=1998
DGENRE=Blues
TTITLE0=Sittin' and Cryin'
TTITLE1=Homework
TTITLE2=Who'll Stop The Rain
TTITLE3=Time Work Your Magic
TTITLE4=Scratches
TTITLE5=Blue and Lonesome
TTITLE6=Such A Fine Man
TTITLE7=Round Every Corner
TTITLE8=Little Sister
TTITLE9=Room With A View
TTITLE10=A.C. Strat
TTITLE11=Backseat Driver
EXTD=YEAR: 1998
EXTT0=
EXTT1=
EXTT2=
EXTT3=
EXTT4=
EXTT5=
EXTT6=
EXTT7=
EXTT8=
EXTT9=
EXTT10=
EXTT11=
PLAYORDER=
